<svg viewBox="0 0 200 200" xmlns="http://www.w3.org/2000/svg" role="img" aria-labelledby="t d">
  <title id="t">RSA Infralink — Símbolo Sinal em Movimento (isolado)</title>
  <desc id="d">Símbolo isolado da torre estilizada com gradiente e ondas, para favicon e app icon. Fundo transparente.</desc>
  <defs>
    <linearGradient id="gT" x1="0" y1="1" x2="0" y2="0">
      <stop offset="0" stop-color="#1a2d6e"/><stop offset="0.5" stop-color="#2f6dae"/><stop offset="1" stop-color="#f47b20"/>
    </linearGradient>
    <linearGradient id="gS" x1="0" y1="0" x2="1" y2="0.6">
      <stop offset="0" stop-color="#2f6dae"/><stop offset="0.55" stop-color="#3a86c0"/><stop offset="1" stop-color="#f47b20"/>
    </linearGradient>
    <style>.sig{stroke:url(#gS);stroke-width:8;fill:none;stroke-linecap:round}</style>
  </defs>
  <g id="sinais">
    <path class="sig" d="M64 58 a34 34 0 0 0 0 56" opacity="0.95"/>
    <path class="sig" d="M46 42 a52 52 0 0 0 0 88" opacity="0.55"/>
    <path class="sig" d="M136 58 a34 34 0 0 1 0 56" opacity="0.95"/>
    <path class="sig" d="M154 42 a52 52 0 0 1 0 88" opacity="0.55"/>
  </g>
  <g id="torre">
    <circle cx="100" cy="34" r="9" fill="#f47b20"/>
    <line x1="100" y1="42" x2="100" y2="66" stroke="url(#gT)" stroke-width="10" stroke-linecap="round"/>
    <path d="M100 66 L66 166 L134 166 Z" fill="url(#gT)" opacity="0.16"/>
    <line x1="100" y1="66" x2="62" y2="172" stroke="url(#gT)" stroke-width="10" stroke-linecap="round"/>
    <line x1="100" y1="66" x2="138" y2="172" stroke="url(#gT)" stroke-width="10" stroke-linecap="round"/>
    <line x1="84" y1="112" x2="116" y2="112" stroke="url(#gT)" stroke-width="7" stroke-linecap="round"/>
    <line x1="76" y1="150" x2="124" y2="150" stroke="url(#gT)" stroke-width="7" stroke-linecap="round"/>
    <line x1="58" y1="178" x2="142" y2="178" stroke="#f47b20" stroke-width="10" stroke-linecap="round"/>
  </g>
</svg>
