<svg viewBox="0 0 200 200" xmlns="http://www.w3.org/2000/svg" role="img" aria-labelledby="t d">
  <title id="t">RSA Infralink — Símbolo Torre de Precisão (isolado, quadrado)</title>
  <desc id="d">Símbolo isolado da torre de telecom com ondas de sinal, para uso como favicon, avatar e app icon. Fundo transparente.</desc>
  <defs>
    <style>
      .nv{fill:#1a2d6e}
      .nvline{stroke:#1a2d6e;stroke-width:3.6;fill:none;stroke-linecap:round;stroke-linejoin:round}
      .nvthin{stroke:#1a2d6e;stroke-width:2.1;fill:none;stroke-linecap:round}
      .orline{stroke:#f47b20;stroke-width:5;fill:none;stroke-linecap:round}
    </style>
  </defs>
  <g id="sinais">
    <path class="orline" d="M66 56 a32 32 0 0 0 0 50" opacity="0.95"/>
    <path class="orline" d="M52 44 a48 48 0 0 0 0 74" opacity="0.66"/>
    <path class="orline" d="M38 32 a64 64 0 0 0 0 98" opacity="0.4"/>
    <path class="orline" d="M134 56 a32 32 0 0 1 0 50" opacity="0.95"/>
    <path class="orline" d="M148 44 a48 48 0 0 1 0 74" opacity="0.66"/>
    <path class="orline" d="M162 32 a64 64 0 0 1 0 98" opacity="0.4"/>
  </g>
  <g id="torre">
    <line class="nvline" x1="100" y1="24" x2="100" y2="52"/>
    <circle class="nv" cx="100" cy="21" r="5.5"/>
    <rect class="nv" x="82" y="52" width="7.5" height="26" rx="2"/>
    <rect class="nv" x="110.5" y="52" width="7.5" height="26" rx="2"/>
    <line class="nvline" x1="100" y1="52" x2="68" y2="172"/>
    <line class="nvline" x1="100" y1="52" x2="132" y2="172"/>
    <line class="nvthin" x1="93" y1="76"   x2="107" y2="76"/>
    <line class="nvthin" x1="89.5" y1="100" x2="110.5" y2="100"/>
    <line class="nvthin" x1="85.5" y1="124" x2="114.5" y2="124"/>
    <line class="nvthin" x1="81.5" y1="148" x2="118.5" y2="148"/>
    <path class="nvthin" d="M93 76 L110.5 100 M107 76 L89.5 100"/>
    <path class="nvthin" d="M89.5 100 L114.5 124 M110.5 100 L85.5 124"/>
    <path class="nvthin" d="M85.5 124 L118.5 148 M114.5 124 L81.5 148"/>
    <path class="nvthin" d="M81.5 148 L132 172 M118.5 148 L68 172"/>
    <line class="nvline" x1="60" y1="178" x2="140" y2="178"/>
    <line class="nvthin" x1="68" y1="172" x2="61" y2="178"/>
    <line class="nvthin" x1="132" y1="172" x2="139" y2="178"/>
    <line class="nvthin" x1="81.5" y1="172" x2="88" y2="178"/>
    <line class="nvthin" x1="118.5" y1="172" x2="112" y2="178"/>
  </g>
</svg>
