<svg id="vector-logo-quadrado" xmlns="http://www.w3.org/2000/svg" viewBox="0 0 240 320" width="100%" height="100%">
  
<defs>
  <!-- Filtro de Sombra Recalibrada (Drop Shadow) -->
  <filter id="soft-shadow" x="-30%" y="-30%" width="160%" height="160%">
    <feDropShadow dx="3" dy="5" stdDeviation="5" flood-color="#000000" flood-opacity="0.6"/>
  </filter>
  <!-- Filtro Neon Glow de Torre (Brilho Fluorescente) -->
  <filter id="neon-glow-tower" x="-100%" y="-100%" width="300%" height="300%">
    <feGaussianBlur stdDeviation="6" result="blur1" />
    <feGaussianBlur stdDeviation="16" result="blur2" />
    <feMerge>
      <feMergeNode in="blur2" />
      <feMergeNode in="blur1" />
      <feMergeNode in="SourceGraphic" />
    </feMerge>
  </filter>
</defs>
<style type="text/css">
  @import url('https://fonts.googleapis.com/css2?family=Inter:wght@400;500;700;800&amp;family=JetBrains+Mono:wght@400;500;700&amp;family=Montserrat:wght@400;500;700;800&amp;family=Outfit:wght@400;500;700;800&amp;family=Playfair+Display:wght@400;700;800&amp;family=Space+Grotesk:wght@400;500;700;800&amp;family=Syne:wght@400;700;800&amp;display=swap');
  .text-title {
    font-family: 'Space Grotesk', 'Space Grotesk', sans-serif;
    font-size: 58px;
    letter-spacing: 0px;
  }
  .text-subtitle {
    font-family: 'Space Grotesk', 'Inter', sans-serif;
    font-size: 28px;
    letter-spacing: 4px;
  }
</style>

  <rect width="240" height="320" fill="#080808" />
  
      <g transform="translate(20, 10) translate(100, 110) scale(1) translate(-100, -110) " stroke-linecap="round" stroke-linejoin="round" >
        
        <!-- Ondas de Transmissão Esquerda (Curva simétrica parametrizada com base no wavesSpread) -->
        <path d="M 78,40 Q 51,65 78,90" fill="none" stroke="#155dfc" stroke-width="1"  />
        <path d="M 68,25 Q 24,65 68,105" fill="none" stroke="#155dfc" stroke-width="1.5"  />
        <path d="M 58,10 Q -3,65 58,120" fill="none" stroke="#155dfc" stroke-width="2"  />

        <!-- Ondas de Transmissão Direitas (Curva simétrica espelhada) -->
        <path d="M 122,40 Q 149,65 122,90" fill="none" stroke="#155dfc" stroke-width="1"  />
        <path d="M 132,25 Q 176,65 132,105" fill="none" stroke="#155dfc" stroke-width="1.5"  />
        <path d="M 142,10 Q 203,65 142,120" fill="none" stroke="#155dfc" stroke-width="2"  />

        <!-- Mastro Fino de Topo -->
        <line x1="100" y1="70" x2="100" y2="30" stroke="#d28a0f" stroke-width="7"  />
        <circle cx="100" cy="25" r="6" fill="#d28a0f" stroke="none" stroke-width="0"  />

        <!-- Prumos de sustentação lateral móveis auto-portantes -->
        <line x1="100" y1="70" x2="52" y2="174" stroke="#d28a0f" stroke-width="7"  />
        <line x1="100" y1="70" x2="148" y2="174" stroke="#d28a0f" stroke-width="7"  />

        <!-- Travessas horizontais de amarra e reforço térmico -->
        <line x1="80" y1="113" x2="120" y2="113" stroke="#d28a0f" stroke-width="3"  />
        <line x1="65" y1="146" x2="135" y2="146" stroke="#d28a0f" stroke-width="3"  />
        <line x1="52" y1="174" x2="148" y2="174" stroke="#d28a0f" stroke-width="3.5"  />

        <!-- Treliças de reforço interno de engenharia (X cravado simétrico) -->
        <line x1="80" y1="113" x2="135" y2="146" stroke="#d28a0f" stroke-width="3"  />
        <line x1="120" y1="113" x2="65" y2="146" stroke="#d28a0f" stroke-width="3"  />
        <line x1="65" y1="146" x2="148" y2="174" stroke="#d28a0f" stroke-width="3"  />
        <line x1="135" y1="146" x2="52" y2="174" stroke="#d28a0f" stroke-width="3"  />
        
      </g>
    
  <g transform="translate(0, 0) translate(120, 260) scale(1) translate(-120, -260)">
    <text x="120" y="240" text-anchor="middle" class="text-title" font-weight="800" fill="#d28a0f">RSA</text>
    <text x="120" y="275" text-anchor="middle" class="text-subtitle" font-weight="700" fill="#155dfc">INFRALINK</text>
    
    <!-- Sublinhado geométrico de amarra de prumo -->
    <line x1="40" y1="295" x2="200" y2="295" stroke="#d28a0f" stroke-width="3.5" stroke-linecap="round" />
  </g>
  
</svg>