<svg xmlns="http://www.w3.org/2000/svg" viewBox="0 0 240 320" role="img" aria-labelledby="t d">
  <title id="t">RSA Infralink — Torre de Precisão v2 Branco (quadrado)</title>
  <desc id="d">Símbolo acima, nome abaixo centrado. Torre azul marinho, ondas laranja. Fundo branco.</desc>
  <rect width="240" height="320" fill="#ffffff"/>
  <g transform="translate(20,10)" fill="none" stroke-linecap="round" stroke-linejoin="round">
    <line x1="100" y1="8" x2="100" y2="28" stroke="#1a2d6e" stroke-width="5"/>
    <line x1="100" y1="28" x2="58" y2="168" stroke="#1a2d6e" stroke-width="7"/>
    <line x1="100" y1="28" x2="142" y2="168" stroke="#1a2d6e" stroke-width="7"/>
    <line x1="58" y1="168" x2="142" y2="168" stroke="#1a2d6e" stroke-width="7"/>
    <line x1="81" y1="98" x2="119" y2="98" stroke="#1a2d6e" stroke-width="5"/>
    <line x1="70" y1="133" x2="130" y2="133" stroke="#1a2d6e" stroke-width="5"/>
  </g>
  <g transform="translate(20,10)" fill="none" stroke="#f47b20" stroke-linecap="round">
    <path d="M 116,31 Q 135,40 116,49" stroke-width="3"/>
    <path d="M 124,26 Q 152,40 124,54" stroke-width="3.5"/>
    <path d="M 133,21 Q 171,40 133,59" stroke-width="4"/>
    <path d="M 84,31 Q 65,40 84,49" stroke-width="3"/>
    <path d="M 76,26 Q 48,40 76,54" stroke-width="3.5"/>
    <path d="M 67,21 Q 29,40 67,59" stroke-width="4"/>
  </g>
  <g font-family="'Space Grotesk','Montserrat','Segoe UI',Arial,sans-serif" text-anchor="middle">
    <text x="120" y="232" font-size="52" font-weight="800" fill="#f47b20" letter-spacing="2">RSA</text>
    <text x="120" y="268" font-size="22" font-weight="700" fill="#1a2d6e" letter-spacing="2.5">INFRALINK</text>
    <text x="120" y="291" font-size="9" font-weight="600" fill="#1a2d6e" letter-spacing="4" opacity="0.55">TELECOMUNICAÇÕES</text>
  </g>
</svg>
